<svg xmlns="http://www.w3.org/2000/svg" xmlns:xlink="http://www.w3.org/1999/xlink" version="1.1" x="0px" y="0px" viewBox="0 0 64 80" enable-background="new 0 0 64 64" xml:space="preserve"><g><g><g><path d="M52,49.3C52,49.3,52,49.3,52,49.3H12c-0.3,0-0.7-0.2-0.8-0.5c-0.2-0.3-0.2-0.6-0.1-0.9l4.3-9.8V23.9     c0-9.2,7.5-16.6,16.6-16.6c4.4,0,8.6,1.7,11.8,4.9c3.1,3.1,4.9,7.3,4.9,11.8V38l4.2,9.6C53,47.9,53,48,53,48.3     C53,48.8,52.6,49.3,52,49.3z M13.5,47.3h37l-3.8-8.6c-0.1-0.1-0.1-0.3-0.1-0.4V23.9c0-3.9-1.5-7.6-4.3-10.3     c-2.8-2.8-6.4-4.3-10.3-4.3c-8.1,0-14.6,6.6-14.6,14.6v14.4c0,0.1,0,0.3-0.1,0.4L13.5,47.3z"/></g><g><path d="M32,56.8c-4.3,0-7.9-3.5-7.9-7.9c0-0.3,0-0.5,0-0.7c0.1-0.5,0.5-0.9,1-0.9h13.7c0.5,0,0.9,0.4,1,0.9c0,0.2,0,0.5,0,0.8     C39.9,53.2,36.3,56.8,32,56.8z M26.1,49.3c0.2,3.1,2.8,5.5,5.9,5.5s5.7-2.4,5.9-5.5H26.1z"/></g></g></g><text x="0" y="79" fill="#000000" font-size="5px" font-weight="bold" font-family="'Helvetica Neue', Helvetica, Arial-Unicode, Arial, Sans-serif">Created by Imam sanjaya</text><text x="0" y="84" fill="#000000" font-size="5px" font-weight="bold" font-family="'Helvetica Neue', Helvetica, Arial-Unicode, Arial, Sans-serif">from the Noun Project</text></svg>