<svg xmlns="http://www.w3.org/2000/svg" xmlns:xlink="http://www.w3.org/1999/xlink" version="1.1" x="0px" y="0px" viewBox="0 0 60 75" style="enable-background:new 0 0 60 60;" xml:space="preserve"><path d="M50.4282227,6H9.5717773C7.6020508,6,6,7.6025391,6,9.5722656v40.855957C6,52.3979492,7.6020508,54,9.5717773,54h40.8564453  C52.3979492,54,54,52.3979492,54,50.4282227V9.5722656C54,7.6025391,52.3979492,6,50.4282227,6z M52,50.4282227  C52,51.2949219,51.2949219,52,50.4282227,52H9.5717773C8.7050781,52,8,51.2949219,8,50.4282227V9.5722656  C8,8.7050781,8.7050781,8,9.5717773,8h40.8564453C51.2949219,8,52,8.7050781,52,9.5722656V50.4282227z"/><polygon points="19.5,13.5107422 17.5,13.5107422 17.5,17.5 13.5107422,17.5 13.5107422,19.5 17.5,19.5 17.5,23.4892578   19.5,23.4892578 19.5,19.5 23.4892578,19.5 23.4892578,17.5 19.5,17.5 "/><rect x="36.5107422" y="17.5" width="9.9785156" height="2"/><rect x="13.5107422" y="43.0717773" width="9.9785156" height="2"/><rect x="13.5107422" y="37.9287109" width="9.9785156" height="2"/><polygon points="44.3208008,37.2651367 41.5,40.0861206 38.6791992,37.2651367 37.2651367,38.6791992 40.0859985,41.5002441   37.2651367,44.3212891 38.6791992,45.7353516 41.5,42.9143677 44.3208008,45.7353516 45.7348633,44.3212891 42.9140015,41.5002441   45.7348633,38.6791992 "/><text x="0" y="75" fill="#000000" font-size="5px" font-weight="bold" font-family="'Helvetica Neue', Helvetica, Arial-Unicode, Arial, Sans-serif">Created by Vectorstall</text><text x="0" y="80" fill="#000000" font-size="5px" font-weight="bold" font-family="'Helvetica Neue', Helvetica, Arial-Unicode, Arial, Sans-serif">from the Noun Project</text></svg>