<svg xmlns="http://www.w3.org/2000/svg" xmlns:xlink="http://www.w3.org/1999/xlink" version="1.1" x="0px" y="0px" viewBox="0 0 90 112.5" enable-background="new 0 0 90 90" xml:space="preserve"><g><path fill="#000000" d="M58.33,81.67c-0.11,0.23-0.13,0.51-0.03,0.77l1.13,2.84c0.05,0.13,0.13,0.24,0.23,0.34   c0.27,0.25,0.66,0.33,1,0.19c2.58-1.02,5.08-2.3,7.42-3.81c0.21-0.14,0.36-0.35,0.42-0.6c0.05-0.25,0.01-0.5-0.13-0.72L66.7,78.1   c-0.04-0.06-0.09-0.12-0.15-0.18c-0.32-0.3-0.8-0.34-1.17-0.11c-2.07,1.33-4.27,2.47-6.55,3.38l0,0c0,0,0,0,0,0   C58.83,81.2,58.4,81.45,58.33,81.67z"/><path fill="#000000" d="M31.49,9.82c-0.32,0.12-0.69,0.04-0.94-0.2c-0.09-0.09-0.16-0.2-0.21-0.32l-1.06-2.86   c-0.08-0.22-0.07-0.46,0.02-0.68c0.1-0.22,0.28-0.38,0.5-0.46c9.25-3.43,19.1-3.59,28.51-0.46c6.43,2.14,12.08,5.62,16.81,10.33   c3.21,3.21,5.9,6.91,7.98,11l2.16-0.9c0.67-0.28,1.43-0.18,2.01,0.26c0.07,0.06,0.14,0.11,0.2,0.18l0,0l0,0   c0.44,0.44,0.65,1.07,0.57,1.69l-1.22,9.47c-0.06,0.44-0.26,0.85-0.57,1.17c-0.19,0.19-0.41,0.34-0.66,0.44   c-0.66,0.28-1.43,0.18-2-0.26L76,32.42c-0.07-0.05-0.14-0.11-0.2-0.18c-0.39-0.39-0.61-0.93-0.59-1.48c0-0.05,0-0.13,0.02-0.23   c0.06-0.43,0.26-0.84,0.57-1.15c0.19-0.19,0.41-0.34,0.65-0.44l2.19-0.91c-1.82-3.51-4.16-6.69-6.95-9.48   c-4.21-4.2-9.21-7.28-14.88-9.17C48.48,6.63,39.73,6.78,31.49,9.82z"/><path fill="#000000" d="M9.01,61.4c0.33-0.15,0.72-0.09,0.98,0.16c0.08,0.08,0.15,0.17,0.2,0.27c0.87,1.86,1.87,3.65,2.99,5.3   c0.13,0.2,0.18,0.43,0.14,0.67c-0.04,0.23-0.18,0.43-0.37,0.57l-2.52,1.71c-0.2,0.13-0.43,0.18-0.67,0.14   c-0.17-0.03-0.32-0.11-0.44-0.22c-0.05-0.04-0.09-0.09-0.13-0.15c-1.27-1.88-2.4-3.89-3.37-5.98c-0.1-0.22-0.11-0.46-0.03-0.68   c0.08-0.23,0.25-0.41,0.46-0.51L9.01,61.4z"/><path fill="#000000" d="M17.6,72.54l0.01,0.01l0.02,0.02c0.43,0.43,0.88,0.87,1.33,1.28c1.35,1.24,2.8,2.39,4.31,3.42   c0.04,0.03,0.07,0.05,0.1,0.08l0,0c0.32,0.3,0.38,0.79,0.13,1.16l-1.71,2.51c-0.13,0.2-0.34,0.33-0.57,0.38   c-0.23,0.04-0.47-0.01-0.66-0.14c-1.73-1.18-3.39-2.49-4.91-3.89c-0.5-0.46-0.99-0.93-1.45-1.4c-0.17-0.17-0.26-0.39-0.26-0.63   c0-0.24,0.1-0.46,0.27-0.63l2.17-2.14C16.71,72.23,17.25,72.22,17.6,72.54z"/><path fill="#000000" d="M22.75,13.6c0.29,0.4,0.19,0.96-0.21,1.24c-1.02,0.73-2,1.5-2.92,2.31c-0.35,0.3-0.86,0.29-1.19-0.02   c-0.02-0.02-0.04-0.04-0.06-0.06l-2.02-2.29c-0.16-0.18-0.23-0.41-0.22-0.64c0.02-0.24,0.12-0.46,0.3-0.62   c1.04-0.91,2.15-1.79,3.3-2.61c0.19-0.14,0.44-0.19,0.67-0.15c0.17,0.03,0.33,0.11,0.46,0.23c0.04,0.04,0.08,0.08,0.11,0.13   L22.75,13.6z"/><path fill="#000000" d="M5.88,49.31c0.26-0.03,0.52,0.06,0.71,0.24c0.15,0.14,0.25,0.34,0.27,0.55c0.22,1.94,0.61,3.9,1.14,5.81   c0.06,0.23,0.04,0.47-0.08,0.67c-0.12,0.21-0.31,0.36-0.54,0.42l-2.94,0.81c-0.3,0.08-0.62,0-0.85-0.21   c-0.12-0.11-0.2-0.25-0.25-0.41c-0.61-2.18-1.04-4.39-1.3-6.57c-0.03-0.24,0.04-0.47,0.19-0.66c0.15-0.18,0.36-0.3,0.6-0.33   L5.88,49.31z"/><path fill="#000000" d="M13.24,16.97c0.24-0.01,0.47,0.07,0.65,0.23l2.27,2.03l0.01,0.01l0.01,0.01c0.35,0.33,0.38,0.88,0.05,1.24   c-0.98,1.1-1.94,2.32-2.85,3.63c-0.28,0.4-0.83,0.5-1.23,0.23l-2.5-1.72c-0.03-0.02-0.07-0.05-0.11-0.08   c-0.14-0.13-0.23-0.3-0.27-0.49c-0.04-0.23,0.01-0.46,0.14-0.66c1.01-1.47,2.09-2.85,3.21-4.11   C12.79,17.09,13.01,16.98,13.24,16.97z"/><path fill="#000000" d="M50.27,83.54c0.27-0.04,0.54,0.05,0.74,0.23c0.14,0.14,0.24,0.32,0.27,0.52l0.45,3.03   c0.03,0.23-0.02,0.47-0.17,0.66c-0.14,0.19-0.35,0.32-0.58,0.35c-2.75,0.4-5.55,0.53-8.32,0.38c-0.21-0.01-0.41-0.1-0.56-0.24   c-0.19-0.18-0.29-0.43-0.28-0.69l0.15-3.05c0.02-0.49,0.44-0.87,0.93-0.84C45.34,84.01,47.83,83.89,50.27,83.54z"/><path fill="#000000" d="M29.37,80.66l0.05,0.02c0.44,0.19,0.85,0.38,1.28,0.55c1.64,0.65,3.39,1.2,5.22,1.64   c0.15,0.04,0.29,0.11,0.4,0.22c0.23,0.22,0.33,0.54,0.26,0.85l-0.7,2.96c-0.05,0.22-0.2,0.43-0.4,0.55   c-0.2,0.13-0.44,0.16-0.67,0.11c-2.01-0.49-3.99-1.12-5.88-1.87c-0.52-0.21-1.03-0.43-1.5-0.64c-0.09-0.04-0.18-0.09-0.25-0.16   c-0.1-0.09-0.17-0.2-0.22-0.32c-0.09-0.23-0.08-0.47,0.02-0.68l1.23-2.77C28.39,80.67,28.92,80.46,29.37,80.66z"/><path fill="#000000" d="M28.64,10.28c0.1,0.21,0.12,0.45,0.04,0.68c-0.08,0.22-0.24,0.4-0.46,0.51c-0.86,0.41-1.73,0.88-2.67,1.42   c-0.34,0.2-0.77,0.15-1.06-0.12c-0.06-0.06-0.11-0.12-0.16-0.2L22.8,9.94c-0.12-0.2-0.15-0.45-0.09-0.68   c0.06-0.23,0.21-0.42,0.42-0.54c1.05-0.61,2.04-1.14,3.03-1.6c0.33-0.16,0.72-0.1,0.99,0.15c0.08,0.08,0.15,0.16,0.19,0.27   L28.64,10.28z"/><path fill="#000000" d="M3.62,36.93l2.98,0.58c0.17,0.03,0.32,0.11,0.44,0.23c0.22,0.21,0.32,0.52,0.26,0.82   c-0.34,1.75-0.56,3.55-0.64,5.33c-0.01,0.23-0.12,0.46-0.29,0.61c-0.18,0.16-0.41,0.24-0.64,0.23l-3.05-0.15   c-0.21-0.01-0.41-0.1-0.57-0.24c-0.01-0.01-0.02-0.02-0.04-0.04L2.07,44.3l-0.01-0.01c-0.16-0.18-0.24-0.4-0.23-0.64   c0.1-2.03,0.35-4.05,0.74-6.02c0.05-0.23,0.18-0.43,0.38-0.57C3.15,36.93,3.39,36.88,3.62,36.93z"/><path fill="#000000" d="M7.7,25.87l2.7,1.38c0.08,0.04,0.14,0.09,0.2,0.14c0.29,0.27,0.36,0.7,0.18,1.05   c-0.56,1.11-1.05,2.17-1.47,3.23c-0.17,0.42-0.32,0.85-0.48,1.3c-0.08,0.23-0.24,0.41-0.46,0.52c-0.21,0.1-0.46,0.12-0.68,0.04   l-2.86-1.01c-0.12-0.04-0.22-0.11-0.31-0.19c-0.08-0.08-0.15-0.17-0.2-0.27c-0.1-0.21-0.11-0.45-0.03-0.68l0.04-0.1   c0.16-0.45,0.33-0.92,0.51-1.38c0.49-1.22,1.05-2.45,1.66-3.65c0.11-0.21,0.29-0.37,0.52-0.44C7.25,25.74,7.49,25.76,7.7,25.87z"/></g><text x="0" y="105" fill="#000000" font-size="5px" font-weight="bold" font-family="'Helvetica Neue', Helvetica, Arial-Unicode, Arial, Sans-serif">Created by Logodemia</text><text x="0" y="110" fill="#000000" font-size="5px" font-weight="bold" font-family="'Helvetica Neue', Helvetica, Arial-Unicode, Arial, Sans-serif">from the Noun Project</text></svg>