<svg xmlns="http://www.w3.org/2000/svg" xmlns:xlink="http://www.w3.org/1999/xlink" version="1.1" x="0px" y="0px" viewBox="0 0 100 125" style="enable-background:new 0 0 100 100;" xml:space="preserve"><path d="M81.41,18.59c-0.55-0.55-1.37-0.73-2.1-0.46l-60,22c-0.64,0.24-1.12,0.78-1.26,1.45c-0.15,0.67,0.06,1.36,0.54,1.84l38,38  C56.96,81.79,57.47,82,58,82c0.14,0,0.29-0.02,0.43-0.05c0.67-0.15,1.21-0.62,1.45-1.26l22-60C82.15,19.96,81.96,19.14,81.41,18.59z   M72.17,25L39,58.17L23.63,42.8L72.17,25z M57.2,76.37L41.83,61L75,27.83L57.2,76.37z"/><text x="0" y="115" fill="#000000" font-size="5px" font-weight="bold" font-family="'Helvetica Neue', Helvetica, Arial-Unicode, Arial, Sans-serif">Created by Setyo Ari Wibowo</text><text x="0" y="120" fill="#000000" font-size="5px" font-weight="bold" font-family="'Helvetica Neue', Helvetica, Arial-Unicode, Arial, Sans-serif">from the Noun Project</text></svg>