<svg xmlns="http://www.w3.org/2000/svg" xmlns:xlink="http://www.w3.org/1999/xlink" version="1.1" x="0px" y="0px" viewBox="0 0 100 125" style="enable-background:new 0 0 100 100;" xml:space="preserve"><path d="M50,8c11.656,0,22.532,4.836,30.383,13.117l6.805-6.805C87.857,13.643,89,14.117,89,15.062V35c0,0.828-0.672,1.5-1.5,1.5  H67.562c-0.946,0-1.419-1.143-0.751-1.812l7.217-7.217C67.85,20.863,59.235,17,50,17c-18.196,0-33,14.804-33,33s14.804,33,33,33  c17.807,0,32.278-13.91,32.943-31.668c0.092-2.483,2.174-4.359,4.666-4.329c2.484,0.094,4.421,2.183,4.329,4.666  C91.089,74.284,72.668,92,50,92C26.841,92,8,73.159,8,50S26.841,8,50,8z"/><path d="M71,47.75v4.5c0,0.828-0.672,1.5-1.5,1.5H56.46c-1.604,2.756-4.872,4.422-8.46,3.489c-2.45-0.637-4.48-2.586-5.18-5.018  c-1.145-3.979,0.913-7.658,4.181-9.088V24.5c0-0.828,0.672-1.5,1.5-1.5h3c0.828,0,1.5,0.672,1.5,1.5v18.633  c1.464,0.641,2.662,1.746,3.46,3.117H69.5C70.328,46.25,71,46.922,71,47.75z"/><text x="0" y="115" fill="#000000" font-size="5px" font-weight="bold" font-family="'Helvetica Neue', Helvetica, Arial-Unicode, Arial, Sans-serif">Created by Ayub Irawan</text><text x="0" y="120" fill="#000000" font-size="5px" font-weight="bold" font-family="'Helvetica Neue', Helvetica, Arial-Unicode, Arial, Sans-serif">from the Noun Project</text></svg>