<svg xmlns="http://www.w3.org/2000/svg" xmlns:xlink="http://www.w3.org/1999/xlink" version="1.1" x="0px" y="0px" viewBox="0 0 100 125" enable-background="new 0 0 100 100" xml:space="preserve"><path d="M7.484,51.21c2.496,0,4.521-2.024,4.521-4.521c0-18.641,15.099-33.244,34.374-33.244c15.584,0,23.929,4.71,33.043,15.625  l-10.943,9.074c-0.16,0.133-0.207,0.366-0.121,0.587c0.088,0.218,0.29,0.376,0.51,0.398l25.296,2.352  c0.263,0.025,0.481-0.153,0.503-0.418l2.371-25.292c0.02-0.222-0.097-0.448-0.296-0.575c-0.199-0.127-0.442-0.122-0.599,0.01  l-9.771,8.103C75.7,10.54,65.25,4.404,46.377,4.404c-24.345,0-43.415,18.575-43.415,42.285C2.963,49.186,4.987,51.21,7.484,51.21z"/><path d="M92.361,49.527c-0.029-0.001-0.059-0.001-0.088-0.001c-2.456,0-4.471,1.968-4.517,4.435  c-0.173,9.076-3.884,17.416-10.45,23.483c-6.543,6.048-15.299,9.273-24.547,9.104c-15.193-0.288-23.421-4.926-32.076-15.433  l11.502-9.175c0.164-0.131,0.212-0.363,0.132-0.583c-0.084-0.221-0.283-0.383-0.502-0.408L6.569,58.117  c-0.263-0.032-0.484,0.142-0.512,0.408l-0.458,4.057c-0.218,0.628-0.29,1.295-0.22,1.958L3.208,83.768  c-0.024,0.221,0.089,0.448,0.285,0.581c0.198,0.13,0.44,0.13,0.6,0.001l9.531-7.603c10.203,12.417,20.491,18.49,38.962,18.84  c0.301,0.006,0.598,0.009,0.897,0.009c11.297,0,21.905-4.07,29.958-11.511c8.391-7.754,13.133-18.391,13.352-29.952  C96.842,51.636,94.858,49.575,92.361,49.527z"/><text x="0" y="115" fill="#000000" font-size="5px" font-weight="bold" font-family="'Helvetica Neue', Helvetica, Arial-Unicode, Arial, Sans-serif">by Abdellah El Falah El Quadmiry</text><text x="0" y="120" fill="#000000" font-size="5px" font-weight="bold" font-family="'Helvetica Neue', Helvetica, Arial-Unicode, Arial, Sans-serif">from the Noun Project</text></svg>