<svg xmlns="http://www.w3.org/2000/svg" xmlns:xlink="http://www.w3.org/1999/xlink" version="1.1" x="0px" y="0px" viewBox="0 0 512 640" style="enable-background:new 0 0 512 512;" xml:space="preserve"><g><g><path d="M325.55,161.09H186.45c-10.63,0-18.95,10.06-18.95,22.91v113.36c0,12.84,8.33,22.91,18.95,22.91h20.21    c3.59,0,6.5-2.91,6.5-6.5s-2.91-6.5-6.5-6.5h-20.21c-2.81,0-5.95-4.24-5.95-9.91v-76.97h151v76.97c0,5.67-3.14,9.91-5.95,9.91    h-20.21c-3.59,0-6.5,2.91-6.5,6.5s2.91,6.5,6.5,6.5h20.21c10.63,0,18.95-10.06,18.95-22.91V184    C344.5,171.15,336.17,161.09,325.55,161.09z M180.5,207.39V184c0-5.67,3.14-9.91,5.95-9.91h139.09c2.81,0,5.95,4.24,5.95,9.91    v23.4H180.5z"/><path d="M260.88,268.41c-1.23-1.4-3.01-2.21-4.88-2.21s-3.65,0.8-4.88,2.21l-24.3,27.62c-2.37,2.7-2.11,6.8,0.59,9.17    c2.7,2.37,6.8,2.11,9.17-0.59l12.79-14.54v54.34c0,3.59,2.91,6.5,6.5,6.5s6.5-2.91,6.5-6.5v-54.63l13.04,14.83    c1.28,1.46,3.08,2.21,4.88,2.21c1.52,0,3.06-0.53,4.29-1.62c2.7-2.37,2.96-6.48,0.59-9.17L260.88,268.41z"/></g></g><text x="0" y="527" fill="#000000" font-size="5px" font-weight="bold" font-family="'Helvetica Neue', Helvetica, Arial-Unicode, Arial, Sans-serif">Created by Palukx</text><text x="0" y="532" fill="#000000" font-size="5px" font-weight="bold" font-family="'Helvetica Neue', Helvetica, Arial-Unicode, Arial, Sans-serif">from the Noun Project</text></svg>