<svg xmlns="http://www.w3.org/2000/svg" xmlns:xlink="http://www.w3.org/1999/xlink" version="1.1" x="0px" y="0px" viewBox="0 0 100 125" style="enable-background:new 0 0 100 100;" xml:space="preserve"><path d="M49.33,76.01c0.21,0.12,0.44,0.18,0.67,0.18c0.23,0,0.46-0.06,0.67-0.18l21.53-12.43c0.41-0.24,0.67-0.68,0.67-1.15V37.57  c0-0.48-0.25-0.92-0.67-1.15L50.67,23.99c-0.41-0.24-0.92-0.24-1.33,0L27.81,36.42c-0.41,0.24-0.67,0.68-0.67,1.15v24.86  c0,0.48,0.25,0.92,0.67,1.15L49.33,76.01z M70.2,61.66L51.33,72.55V50.78L70.2,39.89V61.66z M50,26.68l18.87,10.89L50,48.47  l-18.87-10.9L50,26.68z M29.8,39.89l18.86,10.89v21.77L29.8,61.66V39.89z"/><path d="M18.23,73.31c0.26,0,0.53-0.08,0.76-0.24c0.6-0.42,0.75-1.25,0.33-1.85c-10.29-14.81-8.49-34.83,4.29-47.61  c12.77-12.77,32.8-14.58,47.63-4.31c0.72,0.5,1.41,1.05,2.09,1.6l-6.38-0.67c-0.74-0.09-1.39,0.45-1.46,1.18  c-0.08,0.73,0.45,1.39,1.18,1.46l10.53,1.11c0.02,0,0.05,0,0.07,0c0.36,0.02,0.73-0.1,1-0.38c0,0,0,0,0,0c0,0,0,0,0,0  c0.02-0.02,0.03-0.06,0.05-0.08c0.1-0.12,0.19-0.24,0.24-0.38c0.03-0.08,0.03-0.17,0.05-0.25c0.02-0.09,0.04-0.18,0.03-0.28  c0-0.03,0.01-0.06,0.01-0.09l-1.11-10.53c-0.08-0.73-0.72-1.25-1.46-1.18c-0.73,0.08-1.26,0.73-1.18,1.46l0.75,7.05  c-0.93-0.78-1.9-1.52-2.89-2.21c-15.88-11-37.34-9.07-51.03,4.62C8.04,35.42,6.1,56.87,17.13,72.74  C17.39,73.11,17.81,73.31,18.23,73.31z"/><path d="M76.39,76.39c-12.78,12.78-32.8,14.58-47.62,4.28c-0.71-0.48-1.4-1.02-2.09-1.57l6.37,0.67c0.72,0.08,1.39-0.45,1.46-1.18  c0.08-0.73-0.45-1.39-1.18-1.46L22.8,76.01c-0.01,0-0.02,0-0.03,0c-0.17-0.01-0.33,0.01-0.49,0.06c-0.02,0.01-0.05,0.01-0.07,0.01  c-0.17,0.06-0.34,0.16-0.48,0.3c0,0,0,0,0,0c0,0,0,0,0,0c-0.02,0.02-0.03,0.06-0.05,0.08c-0.1,0.12-0.19,0.24-0.24,0.38  c-0.03,0.08-0.03,0.17-0.05,0.25c-0.02,0.09-0.04,0.18-0.03,0.28c0,0.03-0.01,0.06-0.01,0.09l1.11,10.53  c0.07,0.68,0.65,1.19,1.32,1.19c0.05,0,0.09,0,0.14-0.01c0.73-0.08,1.26-0.73,1.18-1.46l-0.75-7.06c0.95,0.79,1.92,1.53,2.91,2.2  C34.15,87.65,42.09,90,49.99,90c10.3,0,20.53-3.98,28.28-11.73c13.68-13.68,15.62-35.14,4.62-51.03c-0.42-0.6-1.25-0.76-1.85-0.34  c-0.6,0.42-0.76,1.25-0.34,1.85C90.97,43.59,89.16,63.62,76.39,76.39z"/><text x="0" y="115" fill="#000000" font-size="5px" font-weight="bold" font-family="'Helvetica Neue', Helvetica, Arial-Unicode, Arial, Sans-serif">Created by ainul muttaqin</text><text x="0" y="120" fill="#000000" font-size="5px" font-weight="bold" font-family="'Helvetica Neue', Helvetica, Arial-Unicode, Arial, Sans-serif">from the Noun Project</text></svg>