<svg xmlns="http://www.w3.org/2000/svg" viewBox="0 0 25 31.25" x="0px" y="0px"><g data-name="Layer 34"><path d="M19.58,21H5.42A1.41,1.41,0,0,1,4,19.61V17.32A5.31,5.31,0,0,1,9.3,12h6.4a5.31,5.31,0,0,1,5.3,5.3v2.29A1.41,1.41,0,0,1,19.58,21ZM9.3,13A4.31,4.31,0,0,0,5,17.32v2.29a.41.41,0,0,0,.42.41H19.58a.41.41,0,0,0,.42-.41V17.32A4.31,4.31,0,0,0,15.7,13Z"/><path d="M14.5,13h-4V8h4Zm-3-1h2V9h-2Z"/><polygon points="16.18 8.52 8.81 8.52 6.57 4.73 7.43 4.22 9.39 7.52 15.61 7.52 17.57 4.22 18.43 4.73 16.18 8.52"/><path d="M12.5,19A2.5,2.5,0,1,1,15,16.5,2.5,2.5,0,0,1,12.5,19Zm0-4A1.5,1.5,0,1,0,14,16.5,1.5,1.5,0,0,0,12.5,15Z"/><path d="M12.5,17.5a1,1,0,1,1,1-1A1,1,0,0,1,12.5,17.5Zm0-1Z"/></g><text x="0" y="40" fill="#000000" font-size="5px" font-weight="bold" font-family="'Helvetica Neue', Helvetica, Arial-Unicode, Arial, Sans-serif">Created by Cazier Visual</text><text x="0" y="45" fill="#000000" font-size="5px" font-weight="bold" font-family="'Helvetica Neue', Helvetica, Arial-Unicode, Arial, Sans-serif">from the Noun Project</text></svg>